<svg width="1600" height="1200" viewBox="0 0 1600 1200" fill="none" xmlns="http://www.w3.org/2000/svg">
  <defs>
    <linearGradient id="bg" x1="0" y1="0" x2="1600" y2="1200" gradientUnits="userSpaceOnUse">
      <stop stop-color="#ECE9E2"/>
      <stop offset="0.48" stop-color="#D7D2CA"/>
      <stop offset="1" stop-color="#F7F6F2"/>
    </linearGradient>
    <linearGradient id="ground" x1="0" y1="820" x2="1600" y2="920" gradientUnits="userSpaceOnUse">
      <stop stop-color="#575757"/>
      <stop offset="1" stop-color="#2F2F2F"/>
    </linearGradient>
    <linearGradient id="glass" x1="1020" y1="160" x2="1540" y2="980" gradientUnits="userSpaceOnUse">
      <stop stop-color="#FFFFFF" stop-opacity="0.72"/>
      <stop offset="1" stop-color="#CFCFCF" stop-opacity="0.2"/>
    </linearGradient>
  </defs>
  <rect width="1600" height="1200" fill="url(#bg)"/>
  <rect x="0" y="780" width="1600" height="420" fill="url(#ground)"/>
  <rect x="900" y="0" width="700" height="1200" fill="#F5F5F5"/>
  <rect x="980" y="130" width="500" height="870" rx="18" fill="url(#glass)" stroke="#D4D4D4" stroke-width="6"/>
  <path d="M0 790C164 728 333 718 504 762C674 806 851 799 1044 732C1238 665 1413 661 1600 724V1200H0V790Z" fill="#BFB8AE" opacity="0.22"/>
  <g opacity="0.95">
    <rect x="76" y="334" width="224" height="288" fill="#666666"/>
    <rect x="58" y="310" width="260" height="32" fill="#595959"/>
    <rect x="102" y="408" width="70" height="214" fill="#424242"/>
    <rect x="196" y="392" width="74" height="230" fill="#464646"/>
    <path d="M58 334L188 250L318 334H58Z" fill="#747474"/>
  </g>
  <g opacity="0.95">
    <path d="M180 748L936 648L948 742L190 818L180 748Z" fill="#303030"/>
    <path d="M264 705L324 1000" stroke="#2D2D2D" stroke-width="18"/>
    <path d="M470 684L534 1002" stroke="#2D2D2D" stroke-width="18"/>
    <path d="M688 662L760 1002" stroke="#2D2D2D" stroke-width="18"/>
    <path d="M894 642L964 998" stroke="#2D2D2D" stroke-width="18"/>
    <path d="M185 760L944 676" stroke="#707070" stroke-width="6" stroke-dasharray="18 18"/>
  </g>
  <g fill="#202020">
    <circle cx="422" cy="545" r="34"/>
    <rect x="392" y="580" width="60" height="136" rx="26"/>
    <path d="M392 610L338 668L360 686L410 638L392 610Z"/>
    <path d="M452 610L512 594L520 622L458 636L452 610Z"/>
    <path d="M410 712L380 846H420L448 720L410 712Z"/>
    <path d="M432 712L470 848H506L458 716L432 712Z"/>
    <path d="M334 666L284 694L298 720L352 690L334 666Z"/>
    <path d="M512 588L620 540L632 570L522 618L512 588Z"/>
  </g>
  <g fill="#252525">
    <circle cx="610" cy="516" r="32"/>
    <rect x="580" y="550" width="60" height="134" rx="26"/>
    <path d="M580 580L536 652L560 668L602 604L580 580Z"/>
    <path d="M640 580L710 640L688 666L626 610L640 580Z"/>
    <path d="M598 680L568 842H608L634 688L598 680Z"/>
    <path d="M620 680L656 844H694L646 686L620 680Z"/>
    <rect x="676" y="470" width="76" height="86" rx="8" fill="#3C3C3C"/>
    <circle cx="702" cy="495" r="10" fill="#B5B5B5"/>
    <circle cx="724" cy="495" r="10" fill="#B5B5B5"/>
    <rect x="694" y="512" width="42" height="12" fill="#B5B5B5"/>
  </g>
  <g fill="#1B1B1B">
    <circle cx="812" cy="510" r="32"/>
    <rect x="782" y="544" width="60" height="138" rx="28"/>
    <path d="M782 574L730 636L752 658L804 596L782 574Z"/>
    <path d="M842 574L896 600L884 626L834 598L842 574Z"/>
    <path d="M800 680L772 846H812L838 686L800 680Z"/>
    <path d="M822 680L860 846H896L848 686L822 680Z"/>
    <ellipse cx="904" cy="614" rx="72" ry="32" transform="rotate(12 904 614)" fill="#505050"/>
    <path d="M952 618C932 646 888 666 850 662C870 630 914 610 952 618Z" fill="#7C7C7C"/>
  </g>
  <g fill="#2A2A2A">
    <circle cx="1028" cy="520" r="30"/>
    <path d="M986 556H1070L1056 726H1000L986 556Z"/>
    <path d="M1000 612L948 674L972 694L1012 640L1000 612Z"/>
    <path d="M1054 610L1114 676L1090 694L1040 634L1054 610Z"/>
    <path d="M1008 726L980 850H1018L1040 728L1008 726Z"/>
    <path d="M1034 726L1076 852H1112L1056 728L1034 726Z"/>
  </g>
  <g fill="#2C2C2C">
    <circle cx="1188" cy="520" r="30"/>
    <rect x="1158" y="552" width="60" height="142" rx="28"/>
    <path d="M1178 694L1146 850H1184L1208 698L1178 694Z"/>
    <path d="M1198 694L1246 848H1282L1226 696L1198 694Z"/>
    <path d="M1218 584L1270 550L1288 578L1236 608L1218 584Z"/>
  </g>
  <g stroke="#DFDFDF" stroke-width="10" opacity="0.9">
    <path d="M1066 228H1450"/>
    <path d="M1066 286H1450"/>
    <path d="M1066 344H1450"/>
    <path d="M1066 402H1450"/>
  </g>
  <g opacity="0.85">
    <rect x="1118" y="746" width="302" height="104" rx="18" fill="#E7E7E7"/>
    <rect x="1144" y="770" width="116" height="56" rx="14" fill="#C9C9C9"/>
    <rect x="1284" y="770" width="108" height="56" rx="14" fill="#D2D2D2"/>
    <path d="M1184 770C1170 746 1166 724 1172 704C1196 706 1212 718 1222 742" stroke="#868686" stroke-width="8" stroke-linecap="round"/>
    <path d="M1328 770C1318 744 1316 724 1322 704C1344 706 1358 718 1368 742" stroke="#868686" stroke-width="8" stroke-linecap="round"/>
  </g>
  <g opacity="0.75">
    <path d="M1400 590C1436 560 1472 560 1508 590" stroke="#7D7D7D" stroke-width="10" stroke-linecap="round"/>
    <path d="M1436 594V708" stroke="#8C8C8C" stroke-width="12" stroke-linecap="round"/>
    <path d="M1476 594V708" stroke="#8C8C8C" stroke-width="12" stroke-linecap="round"/>
    <path d="M1416 708H1498" stroke="#7A7A7A" stroke-width="14" stroke-linecap="round"/>
  </g>
  <circle cx="1492" cy="1076" r="26" fill="#FFFFFF" fill-opacity="0.78"/>
  <path d="M1492 1048V1104M1464 1076H1520" stroke="#DADADA" stroke-width="6" stroke-linecap="round"/>
</svg>
