<svg width="256" height="256" viewBox="0 0 256 256" fill="none" xmlns="http://www.w3.org/2000/svg">
  <defs>
    <linearGradient id="bg" x1="18" y1="10" x2="236" y2="246" gradientUnits="userSpaceOnUse">
      <stop stop-color="#F1EEE8"/>
      <stop offset="0.55" stop-color="#D7D1C8"/>
      <stop offset="1" stop-color="#FAF9F5"/>
    </linearGradient>
    <linearGradient id="glass" x1="178" y1="24" x2="238" y2="182" gradientUnits="userSpaceOnUse">
      <stop stop-color="#FFFFFF" stop-opacity="0.84"/>
      <stop offset="1" stop-color="#D5D5D5" stop-opacity="0.18"/>
    </linearGradient>
    <clipPath id="clip">
      <rect width="256" height="256" rx="56" fill="white"/>
    </clipPath>
  </defs>

  <g clip-path="url(#clip)">
    <rect width="256" height="256" fill="url(#bg)"/>
    <rect x="152" width="104" height="256" fill="#F7F7F7"/>
    <path d="M0 156C28 146 58 142 89 149C122 156 154 155 194 140C217 131 236 130 256 136V256H0V156Z" fill="#BDB5AB" opacity="0.28"/>
    <rect y="168" width="256" height="88" fill="#3A3A3A"/>

    <g opacity="0.96">
      <rect x="18" y="74" width="42" height="50" fill="#666666"/>
      <rect x="14" y="68" width="50" height="8" fill="#595959"/>
      <rect x="24" y="88" width="12" height="36" fill="#424242"/>
      <rect x="41" y="86" width="12" height="38" fill="#464646"/>
      <path d="M14 74L39 56L64 74H14Z" fill="#757575"/>
    </g>

    <g opacity="0.96">
      <path d="M22 177L170 158L173 170L28 196L22 177Z" fill="#2E2E2E"/>
      <path d="M40 174L160 159" stroke="#737373" stroke-width="2.5" stroke-dasharray="5 5"/>
      <path d="M56 168L67 232" stroke="#262626" stroke-width="6"/>
      <path d="M102 162L114 232" stroke="#262626" stroke-width="6"/>
      <path d="M145 158L157 232" stroke="#262626" stroke-width="6"/>
    </g>

    <g fill="#202020">
      <circle cx="94" cy="110" r="10"/>
      <rect x="85" y="120" width="18" height="40" rx="8"/>
      <path d="M85 130L67 151L75 158L91 140L85 130Z"/>
      <path d="M103 130L122 125L125 134L105 138L103 130Z"/>
      <path d="M90 158L80 198H92L102 160L90 158Z"/>
      <path d="M100 158L112 198H124L106 159L100 158Z"/>
    </g>

    <g fill="#252525">
      <circle cx="128" cy="102" r="9"/>
      <rect x="120" y="112" width="17" height="37" rx="8"/>
      <path d="M120 122L108 141L116 147L127 129L120 122Z"/>
      <path d="M137 121L154 135L147 142L132 128L137 121Z"/>
      <path d="M125 149L115 194H127L135 151L125 149Z"/>
      <path d="M132 149L144 195H156L139 150L132 149Z"/>
      <rect x="145" y="88" width="20" height="22" rx="3" fill="#3D3D3D"/>
      <circle cx="152" cy="95" r="2.5" fill="#BFBFBF"/>
      <circle cx="159" cy="95" r="2.5" fill="#BFBFBF"/>
      <rect x="150" y="101" width="10" height="3" fill="#BFBFBF"/>
    </g>

    <g fill="#2A2A2A">
      <circle cx="166" cy="110" r="8"/>
      <path d="M154 119H178L174 159H158L154 119Z"/>
      <path d="M159 132L146 148L154 154L163 140L159 132Z"/>
      <path d="M174 132L189 149L181 154L169 138L174 132Z"/>
      <path d="M160 159L151 197H162L169 160L160 159Z"/>
      <path d="M167 159L179 198H190L174 160L167 159Z"/>
    </g>

    <rect x="170" y="26" width="60" height="146" rx="10" fill="url(#glass)" stroke="#D6D6D6" stroke-width="2"/>
    <g stroke="#E2E2E2" stroke-width="4" opacity="0.9">
      <path d="M179 49H221"/>
      <path d="M179 68H221"/>
      <path d="M179 87H221"/>
      <path d="M179 106H221"/>
    </g>

    <g opacity="0.84">
      <rect x="184" y="184" width="42" height="16" rx="5" fill="#D5D5D5"/>
      <path d="M193 184C190 177 190 171 192 166C198 167 202 171 204 178" stroke="#878787" stroke-width="3" stroke-linecap="round"/>
      <path d="M211 184C208 177 208 171 210 166C216 167 220 171 222 178" stroke="#878787" stroke-width="3" stroke-linecap="round"/>
    </g>

    <circle cx="222" cy="222" r="10" fill="#FFFFFF" fill-opacity="0.82"/>
    <path d="M222 213V231M213 222H231" stroke="#D8D8D8" stroke-width="2.5" stroke-linecap="round"/>
  </g>
</svg>
